# xmcd
#
# Track frame offsets:
#	150
#	14969
#	30877
#	48594
#	54494
#	64927
#	75782
#	94103
#	107674
#	123501
#	139293
#	156173
#
# Disc length: 2232 seconds
#
# Revision: 1
# Processed by: cddbd v1.5.2PL0 Copyright (c) Steve Scherf et al.
# Submitted via: audiograbber 1.83.01
#
DISCID=9b08b60c
DTITLE=Christina Martin - Sleeping with a stranger
DYEAR=1900
DGENRE=
TTITLE0=01 Water it
TTITLE1=02 Sleeping with a stranger
TTITLE2=03 Mariana
TTITLE3=04 Away from me
TTITLE4=05 Falling for you
TTITLE5=06 Painting blame
TTITLE6=07 Sally
TTITLE7=08 What i always knew
TTITLE8=09 Take my body home
TTITLE9=10 Secret song
TTITLE10=11 This kind of pain
TTITLE11=12 Happy
EXTD=
EXTT0=
EXTT1=
EXTT2=
EXTT3=
EXTT4=
EXTT5=
EXTT6=
EXTT7=
EXTT8=
EXTT9=
EXTT10=
EXTT11=
PLAYORDER=
